<svg width="20" height="22" viewBox="0 0 20 22" fill="none" xmlns="http://www.w3.org/2000/svg">
<rect width="20" height="22" fill="#E5E5E5"/>
<g id="Desktop" clip-path="url(#clip0_0_1)">
<rect width="1440" height="3935" transform="translate(-1393 -70)" fill="white"/>
<g id="Frame">
<g id="Frame_2">
<g id="Rectangle" filter="url(#filter0_d_0_1)">
<path d="M-1393 -23H47V48H-1393V-23Z" fill="#F6F4EC"/>
</g>
<g id="Frame_3">
<path id="Rectangle_2" d="M-1393 -18H47V43H-1393V-18Z" fill="#F6F4EC"/>
<g id="Frame_4">
<g id="Frame_5">
<g id="Frame_6">
<g id="Frame_7" clip-path="url(#clip1_0_1)">
<path id="Vector" d="M19.7297 19.14L18 4.4H14.8108C14.4324 2.145 12.4324 0.440002 9.99997 0.440002C7.56754 0.440002 5.56754 2.145 5.18916 4.4H1.99997L0.270239 19.14C0.162131 19.965 0.486455 20.46 0.756725 20.79C1.027 21.065 1.51348 21.45 2.4324 21.45H17.5675C18.2702 21.45 18.8648 21.23 19.2432 20.735C19.6216 20.35 19.7838 19.745 19.7297 19.14ZM9.99997 2.64C11.1892 2.64 12.2162 3.41 12.5405 4.4H7.40537C7.78375 3.355 8.81078 2.64 9.99997 2.64ZM2.4324 19.25L3.94591 6.6H5.1351V8.25C5.1351 8.855 5.62159 9.35 6.21619 9.35C6.81078 9.35 7.29727 8.855 7.29727 8.25V6.6H12.7027V8.25C12.7027 8.855 13.1892 9.35 13.7838 9.35C14.3783 9.35 14.8648 8.855 14.8648 8.25V6.6H16.054L17.5675 19.25H2.4324Z" fill="black"/>
</g>
</g>
</g>
</g>
</g>
</g>
</g>
</g>
<defs>
<filter id="filter0_d_0_1" x="-1396" y="-26" width="1446" height="77" filterUnits="userSpaceOnUse" color-interpolation-filters="sRGB">
<feFlood flood-opacity="0" result="BackgroundImageFix"/>
<feColorMatrix in="SourceAlpha" type="matrix" values="0 0 0 0 0 0 0 0 0 0 0 0 0 0 0 0 0 0 127 0" result="hardAlpha"/>
<feOffset/>
<feGaussianBlur stdDeviation="1.5"/>
<feColorMatrix type="matrix" values="0 0 0 0 0.866667 0 0 0 0 0.866667 0 0 0 0 0.866667 0 0 0 1 0"/>
<feBlend mode="normal" in2="BackgroundImageFix" result="effect1_dropShadow_0_1"/>
<feBlend mode="normal" in="SourceGraphic" in2="effect1_dropShadow_0_1" result="shape"/>
</filter>
<clipPath id="clip0_0_1">
<rect width="1440" height="3935" fill="white" transform="translate(-1393 -70)"/>
</clipPath>
<clipPath id="clip1_0_1">
<rect width="20" height="22" fill="white"/>
</clipPath>
</defs>
</svg>
